<!-- by TradingView --><svg width="18" height="18" xmlns="http://www.w3.org/2000/svg"><path fill="#F8952A" d="M0 0h18v18H0z"/><path d="M5.859 11l1.715-4h.949l.712 4H7.79l.142-1h.22l-.22-1.76L7.276 10h.214l-.214 1H5.859zM16 7h-1.49c-1.809 0-2.412 3.82-.452 4.012h1.404L15.569 10H14.35c-.9 0-.73-2 .45-2h1.092L16 7z" fill="#fff"/><path fill-rule="evenodd" d="M11.719 6.397h-.464L11.184 7h-.44l.07-.603h-.455l-.07.603h-.38l-.474 4h.457l-.036.397h.438L10.33 11h.45l-.037.397h.476l.036-.397h.103c1.154-.012 1.607-1.55 1.01-2.14.193-.174.319-.536.319-.86 0-.451-.278-.998-.78-.998V7h-.26l.072-.603zM10.573 8l-.063.5h1.09c.406 0 .404-.5.057-.5h-1.084zm-.243 2l.063-.526h1.074c.4 0 .4.526 0 .526H10.33z" fill="#fff"/><path fill-rule="evenodd" d="M5.787 8.9c.532.574.109 1.675-.34 1.961-.264.168-.706.139-1.046.139H1.987l.488-4h2.92c.417 0 .756.432.756.966 0 .35-.145.765-.364.934zM3.353 8h1.664c.377 0 .291.5-.017.5H3.282l.071-.5zm1.51 1.5h-1.66l-.09.5H4.8c.438 0 .414-.5.064-.5z" fill="#000"/></svg>