<!-- by TradingView --><svg width="18" height="18" xmlns="http://www.w3.org/2000/svg"><path d="M0 9a9 9 0 1118 0A9 9 0 010 9z" fill="url(#paint0_linear)"/><path d="M5 8.003L4 8V7l1 .003c0 .017 0-.02 0 0 .003-.219-.014-.681 0-.9 0-.986.62-1.814 1.472-2.016.356-.083 1.004-.101 1.367-.071.376.032.745.115 1.097.248L9 4.289l-.243.942c-.44-.196-1.036-.285-1.583-.196-.548.089-1.179.382-1.179 1.068v.9L8 7v1l-2.005.003v4H5v-4z" fill="#fff"/><path d="M12.254 9.5c.002.004-.002-.003 0 0-.002.003.002-.004 0 0l.743-1.5H12l-.502 1L11 8h-1l.786 1.5c-.002-.003.002.004 0 0L10 11h1l.498-1L12 11h.997l-.743-1.5zM9.78 11.613c-.161.128-.541.263-.697.387-1.366-1.224-1.518-3.577-.005-5 .158.125.536.261.698.39C9.158 8.089 9 8.602 9 9.5c0 .698.303 1.584.78 2.113zm3.446 0c.16.128.535.263.69.387 1.367-1.224 1.519-3.577.006-5-.157.125-.53.261-.693.39.619.699.771 1.197.771 2.11 0 .732-.303 1.576-.774 2.113z" fill="#F7D509"/><defs><linearGradient id="paint0_linear" x1="3.349" y1="3.122" x2="21.904" y2="24.434" gradientUnits="userSpaceOnUse"><stop stop-color="#1A1E21"/><stop offset="1" stop-color="#06060A"/></linearGradient></defs></svg>