<!-- by TradingView --><svg width="18" height="18" xmlns="http://www.w3.org/2000/svg"><path d="M0 9a9 9 0 1118 0A9 9 0 010 9z" fill="url(#paint0_linear)"/><path d="M7.21 6.067c.541-.346 1.168-.487 1.797-.497.62 0 1.25.168 1.77.486l1.043-1.018c-.86-.684-1.789-1.03-2.818-1.03-1.029 0-1.968.346-2.807 1.03L7.21 6.067zM6.057 10.765A3.49 3.49 0 015.562 9c0-.62.164-1.21.495-1.768L5.024 6.188C4.341 7.028 4 7.959 4 9c0 1.02.341 1.962 1.035 2.813l1.022-1.048zM10.774 11.937c-.542.348-1.155.49-1.774.5-.63 0-1.252-.173-1.779-.5L6.187 12.97c.85.694 1.789 1.041 2.828 1.03 1.029-.01 1.958-.357 2.797-1.03l-1.038-1.032zM11.946 7.235c.32.524.502 1.183.491 1.765-.01.61-.167 1.239-.486 1.754l1.018 1.059C13.653 10.972 14 10.04 14 9.02c.011-1.04-.336-1.982-1.03-2.832l-1.023 1.047zM13 12a1 1 0 11-1 1c0-.558.442-1 1-1zM5 12c.553 0 1 .442 1 1 0 .546-.447 1-1 1-.553 0-1-.442-1-1s.447-1 1-1zM13 4c.553 0 1 .442 1 1s-.447 1-1 1c-.553 0-1-.442-1-1s.447-1 1-1zM5 4c.545 0 1 .447 1 1 0 .553-.442 1-1 1-.545 0-1-.447-1-1 0-.553.442-1 1-1z" fill="#fff"/><path d="M11.502 12l-5.5-5.5L6.5 6l5.495 5.5-.493.5z" fill="#fff"/><path d="M6.5 12L12 6.5l-.498-.5L6 11.5l.5.5z" fill="#fff"/><defs><linearGradient id="paint0_linear" x1="3.349" y1="3.122" x2="21.904" y2="24.434" gradientUnits="userSpaceOnUse"><stop stop-color="#1A1E21"/><stop offset="1" stop-color="#06060A"/></linearGradient></defs></svg>