<!-- by TradingView --><svg width="18" height="18" xmlns="http://www.w3.org/2000/svg"><path d="M0 9a9 9 0 1118 0A9 9 0 010 9z" fill="url(#paint0_linear)"/><path d="M13.43 4.997H4.467a.477.477 0 00-.467.51c0 .324.306.453.467.49H8.5v8.555c0 .191.214.448.504.448.29 0 .496-.214.496-.448V5.997h3.93c.19.013.57-.024.57-.469 0-.445-.38-.518-.57-.53z" fill="#82DEFF"/><defs><linearGradient id="paint0_linear" x1="3.349" y1="3.122" x2="21.904" y2="24.434" gradientUnits="userSpaceOnUse"><stop stop-color="#1A1E21"/><stop offset="1" stop-color="#06060A"/></linearGradient></defs></svg>