<svg width="32" height="32" viewBox="0 0 32 32" xmlns="http://www.w3.org/2000/svg"><path fill="url(#anaun0iao)" d="M0 0h18v18H0z"/><path d="M8.97 4 6.21 6.99H8l1.2 1.31H6.64L8.99 11h-1.8a.32.32 0 0 1-.23-.1l-2.8-3.03A.64.64 0 0 1 4.19 7l2.83-2.9c.06-.07.14-.1.23-.1h1.73Zm.06 3 2.47 2.7H8.75l1.27 1.3h1.63l-2.64 3h1.8c.08 0 .17-.04.23-.1l2.8-3.03a.64.64 0 0 0-.02-.87l-2.83-2.9a.32.32 0 0 0-.23-.1H9.03Z" fill="#fff"/><defs><linearGradient id="anaun0iao" x1="-.8" y1="9" x2="20.26" y2="9" gradientUnits="userSpaceOnUse"><stop stop-color="#3997AB"/><stop offset="1" stop-color="#3080C3"/></linearGradient></defs></svg>
