<?xml version="1.0" encoding="UTF-8"?>
<svg xmlns:xodm="http://www.corel.com/coreldraw/odm/2003" xmlns="http://www.w3.org/2000/svg" xmlns:xlink="http://www.w3.org/1999/xlink" version="1.1" id="Layer_1" x="0px" y="0px" viewBox="0 0 2365 2500" xml:space="preserve">
<g id="Layer_x0020_1">
	
		<linearGradient id="SVGID_1_" gradientUnits="userSpaceOnUse" x1="2364.9468" y1="1247.8645" x2="-5.306979e-02" y2="1247.8645" gradientTransform="matrix(0.9999 0 0 -0.9999 0.124 2497.7898)">
		<stop offset="0" style="stop-color:#22E6B8"></stop>
		<stop offset="1" style="stop-color:#00C1CE"></stop>
	</linearGradient>
	<path fill="url(#SVGID_1_)" d="M1585.2,923.7c-190.4-189.6-493-189.6-681.3,0c-188.4,191.7-186.4,503.7,2,695.4   c188.4,191.7,495,193.7,683.4,2c3.2-3.3,16.4-18.1,39.7-44.4l-227.2-231.4c-23.4,27.6-35.7,42.1-37,43.4   c-64.1,65.2-168.3,65.2-232.5,0c-64.1-65.2-64.1-171.3-2-234.5c62.1-63.2,166.3-63.2,230.5,2c0,0,202.5,205.9,607.4,617.6   c-166.3,244.7-445.1,399.9-745.7,399.9c-497,0-901.7-413.9-901.7-923.7c0-509.8,404.8-923.7,901.7-923.7   c290.6,0,557.1,142.8,723.4,373.2c-26.8,31.7-95.3,111.1-205.4,238.3l224.1,227.4l372-427C2144.3,293.6,1709.4,0,1222.4,0   C547.1,0,0.1,560.8,0.1,1250c0,689.2,547.1,1250,1222.4,1250c306.6,0,561.1-97.9,809.6-314c226.4-195.8,332.9-467.2,332.9-467.2   L1585.2,923.7L1585.2,923.7z"></path>
</g>
</svg>
