<svg width="32" height="32" viewBox="0 0 32 32" xmlns="http://www.w3.org/2000/svg"><path fill="#1F3550" d="M0 0h18v18H0z"/><path d="M7 4h7v3H7V4z" fill="#02A6C2"/><path d="M4.003 8.004c.664-.005 1.33-.005 1.994 0 .004.997.004 1.995 0 2.992-.665.005-1.33.005-1.994 0a432.59 432.59 0 010-2.992zm3 0c1.665-.005 3.33-.005 4.994 0 .004.997.004 1.995 0 2.992-1.665.005-3.33.005-4.994 0a429.01 429.01 0 010-2.992z" fill="#5FCADE"/><path d="M7.005 12.008c.663-.01 1.327-.01 1.99 0 .007.995.007 1.99 0 2.985-.663.01-1.327.01-1.99 0a212.15 212.15 0 010-2.985z" fill="#ABEBF4"/></svg>
