<?xml version="1.0" encoding="UTF-8"?>
<svg xmlns:xodm="http://www.corel.com/coreldraw/odm/2003" xmlns="http://www.w3.org/2000/svg" xmlns:xlink="http://www.w3.org/1999/xlink" version="1.1" id="Layer_1" x="0px" y="0px" viewBox="0 0 2500 2500" style="enable-background:new 0 0 2500 2500;" xml:space="preserve">
<style type="text/css">
	.st0{fill-rule:evenodd;clip-rule:evenodd;fill:#0066ED;}
	.st1{fill:#FFFFFF;}
</style>
<g id="Layer_x0020_1">
	<g id="_1704856852608">
		<circle class="st0" cx="1250" cy="1250" r="1250"></circle>
		<path class="st1" d="M1041,1724c4-396,425-479,378-912c-14-124-74-272-196-390c-6-6-17-1-16,8c37,397-243,585-369,751    c-279,367-74,838,340,900c9,1,15-10,8-16C1101,1981,1041,1874,1041,1724L1041,1724L1041,1724z"></path>
		<path class="st1" d="M1582,1090c-6-5-14-2-16,5c-10,51-42,136-144,284c-265,384-137,555-21,684c26,30,13-7,67-44    c73-51,104-57,173-118c79-79,143-203,149-329C1803,1298,1642,1142,1582,1090L1582,1090z"></path>
	</g>
</g>
</svg>
