<svg width="32" height="32" viewBox="0 0 32 32" xmlns="http://www.w3.org/2000/svg"><path fill="#07003C" d="M0 0h18v18H0z"/><path d="M7.35 11.86 9 7.7l-.91-1.98c-.47-1.01-1.81-.96-2.2.08L4.12 10.4c-.36.96.05 2.06.94 2.46.88.4 1.9-.04 2.28-1Z" fill="url(#agvizw500)"/><path d="M10.65 11.86 9 7.7l.91-1.98c.47-1.01 1.81-.96 2.2.08l1.76 4.58c.36.96-.05 2.06-.94 2.46-.88.4-1.9-.04-2.28-1Z" fill="url(#bgvizw500)"/><defs><linearGradient id="agvizw500" x1="4.63" y1="5.39" x2="6.99" y2="13.36" gradientUnits="userSpaceOnUse"><stop stop-color="#2770FF"/><stop offset="1" stop-color="#548EFF"/></linearGradient><linearGradient id="bgvizw500" x1="10.85" y1="5.43" x2="11.95" y2="11.52" gradientUnits="userSpaceOnUse"><stop stop-color="#528DFF"/><stop offset="1" stop-color="#236DFF"/></linearGradient></defs></svg>
